# xmcd
#
# Track frame offsets:
#	150
#	12928
#	28261
#	43952
#	54757
#	68235
#	81190
#	93855
#	107068
#	120335
#
# Disc length: 1776 seconds
#
# Revision: 0
# Processed by: cddbd v1.5.2PL0 Copyright (c) Steve Scherf et al.
# Submitted via: audiograbber 1.83.01
#
DISCID=7806ee0a
DTITLE=Jared James Nichols - Black Magic
DYEAR=2017
DGENRE=Rock
TTITLE0=Last chance
TTITLE1=The gun
TTITLE2=Don't be scared
TTITLE3=Honey forgive me
TTITLE4=Home
TTITLE5=Got to have you
TTITLE6=End of time
TTITLE7=Run
TTITLE8=Keep your light on mama
TTITLE9=What love
EXTD=
EXTT0=
EXTT1=
EXTT2=
EXTT3=
EXTT4=
EXTT5=
EXTT6=
EXTT7=
EXTT8=
EXTT9=
PLAYORDER=
